<mxfile host="app.diagrams.net" modified="2024-05-24T11:12:23.944Z" agent="Mozilla/5.0 (X11; Linux x86_64) AppleWebKit/537.36 (KHTML, like Gecko) Chrome/125.0.0.0 Safari/537.36" version="24.3.1" etag="i2YlGCwXc5XXgkDPAMhm" type="github">
  <diagram name="Page-1" id="86NYE_RoTS63za082Xol">
    <mxGraphModel>
      <root>
        <mxCell id="0" />
        <mxCell id="1" parent="0" />
      </root>
    </mxGraphModel>
  </diagram>
</mxfile>
